<svg xmlns="http://www.w3.org/2000/svg" xmlns:xlink="http://www.w3.org/1999/xlink" version="1.1" width="256" height="256" viewBox="0 0 256 256" xml:space="preserve">

<defs>
</defs>
<g style="stroke: none; stroke-width: 0; stroke-dasharray: none; stroke-linecap: butt; stroke-linejoin: miter; stroke-miterlimit: 10; fill: none; fill-rule: nonzero; opacity: 1;" transform="translate(1.4065934065934016 1.4065934065934016) scale(2.81 2.81)" >
	<path d="M 45 90 C 20.187 90 0 69.813 0 45 C 0 20.187 20.187 0 45 0 c 24.813 0 45 20.187 45 45 C 90 69.813 69.813 90 45 90 z" style="stroke: none; stroke-width: 1; stroke-dasharray: none; stroke-linecap: butt; stroke-linejoin: miter; stroke-miterlimit: 10; fill: rgb(84,148,211); fill-rule: nonzero; opacity: 1;" transform=" matrix(1 0 0 1 0 0) " stroke-linecap="round" />
	<rect x="36.64" y="41.83" rx="0" ry="0" width="16.72" height="6.35" style="stroke: none; stroke-width: 1; stroke-dasharray: none; stroke-linecap: butt; stroke-linejoin: miter; stroke-miterlimit: 10; fill: rgb(255,255,255); fill-rule: nonzero; opacity: 1;" transform=" matrix(-1 -1.224647e-16 1.224647e-16 -1 90 90) "/>
	<path d="M 27.479 57.927 V 32.073 c 0 -1.116 0.905 -2.021 2.021 -2.021 h 2.305 c 1.116 0 2.021 0.905 2.021 2.021 v 25.855 c 0 1.116 -0.905 2.021 -2.021 2.021 H 29.5 C 28.383 59.948 27.479 59.044 27.479 57.927 z" style="stroke: none; stroke-width: 1; stroke-dasharray: none; stroke-linecap: butt; stroke-linejoin: miter; stroke-miterlimit: 10; fill: rgb(255,255,255); fill-rule: nonzero; opacity: 1;" transform=" matrix(1 0 0 1 0 0) " stroke-linecap="round" />
	<path d="M 18.302 52.131 V 37.869 c 0 -1.116 0.905 -2.021 2.021 -2.021 h 2.305 c 1.116 0 2.021 0.905 2.021 2.021 v 14.263 c 0 1.116 -0.905 2.021 -2.021 2.021 h -2.305 C 19.207 54.152 18.302 53.248 18.302 52.131 z" style="stroke: none; stroke-width: 1; stroke-dasharray: none; stroke-linecap: butt; stroke-linejoin: miter; stroke-miterlimit: 10; fill: rgb(255,255,255); fill-rule: nonzero; opacity: 1;" transform=" matrix(1 0 0 1 0 0) " stroke-linecap="round" />
	<path d="M 62.521 57.927 V 32.073 c 0 -1.116 -0.905 -2.021 -2.021 -2.021 h -2.305 c -1.116 0 -2.021 0.905 -2.021 2.021 v 25.855 c 0 1.116 0.905 2.021 2.021 2.021 H 60.5 C 61.617 59.948 62.521 59.044 62.521 57.927 z" style="stroke: none; stroke-width: 1; stroke-dasharray: none; stroke-linecap: butt; stroke-linejoin: miter; stroke-miterlimit: 10; fill: rgb(255,255,255); fill-rule: nonzero; opacity: 1;" transform=" matrix(1 0 0 1 0 0) " stroke-linecap="round" />
	<path d="M 71.663 52.131 V 37.869 c 0 -1.116 -0.905 -2.021 -2.021 -2.021 h -2.305 c -1.116 0 -2.021 0.905 -2.021 2.021 v 14.263 c 0 1.116 0.905 2.021 2.021 2.021 h 2.305 C 70.758 54.152 71.663 53.248 71.663 52.131 z" style="stroke: none; stroke-width: 1; stroke-dasharray: none; stroke-linecap: butt; stroke-linejoin: miter; stroke-miterlimit: 10; fill: rgb(255,255,255); fill-rule: nonzero; opacity: 1;" transform=" matrix(1 0 0 1 0 0) " stroke-linecap="round" />
	<path d="M 76.479 41.827 L 76.479 41.827 c 1.116 0 2.021 0.905 2.021 2.021 v 2.305 c 0 1.116 -0.905 2.021 -2.021 2.021 h 0 c -1.116 0 -2.021 -0.905 -2.021 -2.021 v -2.305 C 74.458 42.731 75.363 41.827 76.479 41.827 z" style="stroke: none; stroke-width: 1; stroke-dasharray: none; stroke-linecap: butt; stroke-linejoin: miter; stroke-miterlimit: 10; fill: rgb(255,255,255); fill-rule: nonzero; opacity: 1;" transform=" matrix(1 0 0 1 0 0) " stroke-linecap="round" />
	<path d="M 13.521 41.827 L 13.521 41.827 c 1.116 0 2.021 0.905 2.021 2.021 v 2.305 c 0 1.116 -0.905 2.021 -2.021 2.021 h 0 c -1.116 0 -2.021 -0.905 -2.021 -2.021 v -2.305 C 11.5 42.731 12.405 41.827 13.521 41.827 z" style="stroke: none; stroke-width: 1; stroke-dasharray: none; stroke-linecap: butt; stroke-linejoin: miter; stroke-miterlimit: 10; fill: rgb(255,255,255); fill-rule: nonzero; opacity: 1;" transform=" matrix(1 0 0 1 0 0) " stroke-linecap="round" />
</g>
</svg>